<?xml version="1.0" standalone="no"?>
<!DOCTYPE svg PUBLIC "-//W3C//DTD SVG 20010904//EN"
 "http://www.w3.org/TR/2001/REC-SVG-20010904/DTD/svg10.dtd">
<svg version="1.0" xmlns="http://www.w3.org/2000/svg"
 width="651.000000pt" height="651.000000pt" viewBox="0 0 651.000000 651.000000"
 preserveAspectRatio="xMidYMid meet">
<metadata>
Created by potrace 1.11, written by Peter Selinger 2001-2013
</metadata>
<g transform="translate(0.000000,651.000000) scale(0.100000,-0.100000)"
fill="#000000" stroke="none">
<path d="M0 3255 l0 -3255 3255 0 3255 0 0 3255 0 3255 -3255 0 -3255 0 0
-3255z m4190 1017 c33 -16 275 -252 912 -889 l867 -868 16 -59 c20 -68 15
-127 -14 -184 -25 -46 -1734 -1754 -1778 -1776 -53 -26 -113 -30 -179 -11
l-59 16 -868 867 c-627 627 -873 879 -889 911 -30 61 -34 127 -13 192 16 51
52 88 609 647 l591 592 217 -217 c151 -150 216 -223 212 -233 -16 -39 -16
-139 0 -188 19 -56 78 -129 131 -162 l35 -22 0 -524 0 -523 -27 -15 c-50 -26
-112 -98 -134 -156 -55 -144 13 -302 158 -370 59 -28 171 -27 233 1 150 68
217 247 147 391 -25 52 -106 138 -128 138 -5 0 -9 235 -9 522 l0 523 199 -199
c183 -183 199 -201 190 -223 -16 -44 -10 -154 12 -203 26 -59 82 -115 144
-148 41 -21 63 -26 125 -25 89 0 133 17 197 76 123 112 126 305 8 420 -71 69
-183 102 -266 79 l-36 -10 -211 212 -211 211 10 44 c38 168 -105 343 -281 344
-36 0 -74 -2 -85 -6 -17 -6 -59 32 -240 213 l-220 221 195 193 c215 213 238
228 340 223 31 -2 75 -12 100 -25z"/>
</g>
</svg>
